<svg id="Ebene_1" data-name="Ebene 1" xmlns="http://www.w3.org/2000/svg" viewBox="0 0 64 64"><defs><style>.cls-1{fill:#231f20;}</style></defs><path class="cls-1" d="M32.11,63.88A31.9,31.9,0,1,1,64,32,31.94,31.94,0,0,1,32.11,63.88Zm0-61.23A29.34,29.34,0,1,0,61.44,32,29.36,29.36,0,0,0,32.11,2.65Z"/><path class="cls-1" d="M31.89,63.91A31.9,31.9,0,1,1,63.79,32,31.93,31.93,0,0,1,31.89,63.91Zm0-61.23A29.34,29.34,0,1,0,61.22,32,29.37,29.37,0,0,0,31.89,2.68Z"/><path class="cls-1" d="M31.77,17.09A30.31,30.31,0,0,0,28,19.41a29.78,29.78,0,0,0-4.88,4.47H17.22a2.91,2.91,0,0,0-2.92,2.91v10.5a2.92,2.92,0,0,0,2.92,2.91h5.92a33.65,33.65,0,0,0,4.79,4.29,33.23,33.23,0,0,0,3.82,2.44,1,1,0,0,0,1.45-.86V18A1,1,0,0,0,31.77,17.09Z"/><path class="cls-1" d="M45.59,32,49,28.63a1.73,1.73,0,0,0,0-2.44,1.71,1.71,0,0,0-2.44,0l-3.39,3.39-3.39-3.39a1.71,1.71,0,0,0-2.44,0,1.73,1.73,0,0,0,0,2.44L40.71,32,37.32,35.4a1.73,1.73,0,0,0,0,2.44,1.71,1.71,0,0,0,2.44,0l3.39-3.39,3.39,3.39a1.71,1.71,0,0,0,2.44,0,1.73,1.73,0,0,0,0-2.44Z"/></svg>