<?xml version="1.0" encoding="utf-8"?>
<!-- Generator: Adobe Illustrator 25.0.0, SVG Export Plug-In . SVG Version: 6.00 Build 0)  -->
<svg version="1.1" id="Ebene_1" xmlns="http://www.w3.org/2000/svg" xmlns:xlink="http://www.w3.org/1999/xlink" x="0px" y="0px"
	 viewBox="0 0 64 64" style="enable-background:new 0 0 64 64;" xml:space="preserve">
<g>
	<path d="M32.2,63.7C14.7,63.7,0.5,49.5,0.5,32S14.7,0.2,32.3,0.2S64,14.5,64,32S49.8,63.7,32.2,63.7z M32.2,2.8
		C16.1,2.8,3,15.9,3,32s13.1,29.2,29.2,29.2S61.4,48.1,61.4,32S48.4,2.8,32.2,2.8z"/>
	<path d="M31.8,63.8C14.2,63.8,0,49.5,0,32S14.2,0.3,31.8,0.3c17.5,0,31.8,14.2,31.8,31.8S49.3,63.8,31.8,63.8z M31.8,2.8
		C15.6,2.8,2.6,15.9,2.6,32s13.1,29.2,29.2,29.2S61,48.1,61,32S47.9,2.8,31.8,2.8z"/>
	<g>
		<path d="M37.6,23c-0.3-0.5-0.9-0.6-1.4-0.3c-0.5,0.3-0.6,0.9-0.3,1.4c1.6,2.4,2.5,5.2,2.5,8.1c0,2.8-0.8,5.4-2.2,7.7
			c-0.3,0.5-0.2,1.1,0.3,1.4c0.2,0.1,0.4,0.2,0.5,0.2c0.3,0,0.7-0.2,0.8-0.5c1.7-2.6,2.6-5.7,2.6-8.8C40.5,28.9,39.5,25.7,37.6,23z"
			/>
		<path d="M41.8,20.6c-0.3-0.5-0.9-0.6-1.4-0.3c-0.5,0.3-0.6,0.9-0.3,1.4c2.1,3.1,3.2,6.7,3.2,10.5c0,3.6-1,7-2.9,10
			c-0.3,0.5-0.2,1.1,0.3,1.4c0.2,0.1,0.4,0.2,0.5,0.2c0.3,0,0.7-0.2,0.8-0.5c2.1-3.3,3.2-7.1,3.2-11.1
			C45.4,28.1,44.1,24.1,41.8,20.6z"/>
		<path d="M45.6,17.6c-0.3-0.5-0.9-0.6-1.4-0.3c-0.5,0.3-0.6,0.9-0.3,1.4c2.7,4,4.2,8.7,4.2,13.6c0,4.6-1.3,9.1-3.8,13
			c-0.3,0.5-0.2,1.1,0.3,1.4c0.2,0.1,0.4,0.2,0.5,0.2c0.3,0,0.7-0.2,0.8-0.5c2.7-4.2,4.1-9,4.1-14C50.1,27.1,48.5,22,45.6,17.6z"/>
		<path d="M31.8,17.2c-1.2,0.6-2.4,1.4-3.7,2.3c-2.1,1.5-3.7,3.1-4.9,4.4h-5.9c-1.6,0-2.9,1.3-2.9,2.9v10.5c0,1.6,1.3,2.9,2.9,2.9
			h5.9l0,0c1.2,1.3,2.8,2.8,4.8,4.3c1.3,1,2.6,1.8,3.8,2.4c0.6,0.4,1.4-0.1,1.4-0.9V18C33.2,17.3,32.4,16.8,31.8,17.2z"/>
	</g>
</g>
</svg>
