<?xml version="1.0" encoding="utf-8"?>
<!-- Generator: Adobe Illustrator 25.0.0, SVG Export Plug-In . SVG Version: 6.00 Build 0)  -->
<svg version="1.1" id="Ebene_1" xmlns="http://www.w3.org/2000/svg" xmlns:xlink="http://www.w3.org/1999/xlink" x="0px" y="0px"
	 viewBox="0 0 64 64" style="enable-background:new 0 0 64 64;" xml:space="preserve">
<style type="text/css">
	.st0{fill:#3D3D3D;}
</style>
<path class="st0" d="M32.1,63.9C14.5,63.9,0.2,49.6,0.2,32S14.5,0.1,32.1,0.1S64,14.4,64,32l0,0C64,49.6,49.7,63.9,32.1,63.9z
	 M32.1,2.7C15.9,2.6,2.8,15.8,2.8,32s13.1,29.3,29.3,29.3S61.4,48.2,61.4,32l0,0C61.4,15.8,48.3,2.7,32.1,2.7z"/>
<path class="st0" d="M31.9,63.9C14.3,63.9,0,49.6,0,32S14.3,0.1,31.9,0.1S63.8,14.4,63.8,32S49.5,63.9,31.9,63.9z M31.9,2.7
	C15.7,2.7,2.5,15.8,2.5,32s13.1,29.3,29.3,29.3S61.1,48.2,61.1,32l0,0C61.2,15.8,48.1,2.7,31.9,2.7z"/>
<path class="st0" d="M31.8,17.1c-1.3,0.7-2.6,1.5-3.8,2.3c-1.8,1.3-3.4,2.8-4.9,4.5h-5.9c-1.6,0-2.9,1.3-2.9,2.9l0,0v10.5
	c0,1.6,1.3,2.9,2.9,2.9h5.9c1.5,1.6,3.1,3,4.8,4.3c1.2,0.9,2.5,1.7,3.8,2.4c0.5,0.2,1.1,0.1,1.3-0.4c0.1-0.1,0.1-0.3,0.1-0.4V18
	c0-0.6-0.4-1-1-1C32.1,17,31.9,17,31.8,17.1z"/>
<path class="st0" d="M45.6,32l3.4-3.4c0.7-0.7,0.7-1.8,0-2.4c-0.7-0.7-1.7-0.7-2.4,0l0,0l-3.4,3.4l-3.4-3.4c-0.7-0.7-1.7-0.7-2.4,0
	l0,0c-0.7,0.7-0.7,1.8,0,2.4l3.4,3.4l-3.4,3.4c-0.7,0.7-0.7,1.8,0,2.4c0.7,0.7,1.7,0.7,2.4,0l0,0l3.4-3.4l3.4,3.4
	c0.7,0.7,1.7,0.7,2.4,0l0,0c0.7-0.7,0.7-1.8,0-2.4L45.6,32z"/>
</svg>
