<?xml version="1.0" encoding="utf-8"?>
<!-- Generator: Adobe Illustrator 25.0.0, SVG Export Plug-In . SVG Version: 6.00 Build 0)  -->
<svg version="1.1" id="Ebene_1" xmlns="http://www.w3.org/2000/svg" xmlns:xlink="http://www.w3.org/1999/xlink" x="0px" y="0px"
	 viewBox="0 0 64 64" style="enable-background:new 0 0 64 64;" xml:space="preserve">
<style type="text/css">
	.st0{fill:#FFFFFF;}
	.st1{fill:url(#SVGID_1_);stroke:#1D1D1B;stroke-width:0.25;stroke-miterlimit:10;}
	.st2{fill:none;stroke:#1D1D1B;stroke-width:0.25;stroke-miterlimit:10;}
	.st3{fill:none;stroke:#000000;stroke-width:0.25;stroke-miterlimit:10;}
</style>
<g>
	<path d="M64,12.7c-0.1,0.3-0.2,0.6-0.3,0.8c-5.4,14.5-10.8,29.1-16.2,43.6c-0.5,1.3-1,2.6-1.4,3.9c-0.1,0.4-0.4,0.5-0.8,0.5
		c-3-0.3-6.1-0.5-9.1-0.7c-3.8-0.3-7.7-0.6-11.5-0.9c-3.1-0.2-6.2-0.5-9.3-0.7c-2.5-0.2-5-0.4-7.5-0.6c-0.6-0.1-1.3-0.3-1.8-0.6
		c-2.4-1.3-4.3-3.2-5.7-5.6c-0.6-1-0.5-1.8,0.1-2.8c3.3-5.4,6.4-10.9,9.6-16.3c5.3-9,10.5-18,15.8-27c0.3-0.6,0.6-0.6,1.2-0.3
		c0.1,0.1,0.3,0,0.4,0c5.6-0.6,11.3-1.2,16.9-1.7C49.5,3.5,54.7,3,59.8,2.5c0.5,0,0.6,0.1,0.4,0.5c-0.4,1-0.7,1.9-1.1,2.9
		c-0.1,0.2-0.1,0.4,0,0.6c0.6,1.9,1.3,3.7,1.9,5.6c0.1,0.3,0.2,0.4,0.5,0.4C62.3,12.6,63.1,12.7,64,12.7z M58.8,6.9
		c-0.1,0.3-0.2,0.4-0.2,0.5c-2.2,5.8-4.5,11.7-6.7,17.5c-3.5,9-7,18-10.5,27.1c-0.2,0.4-0.4,0.6-0.8,0.5c-1.5-0.1-2.9-0.1-4.4-0.2
		c-7.5-0.3-15-0.7-22.6-1C9.8,51.1,6,51,2.2,50.8c-0.5,0-0.9,0-1.4,0c0,0.2,0.1,0.3,0.1,0.4c1.4,3,3.5,5.3,6.7,6.6
		c0.2,0.1,0.4,0.1,0.6,0.2c7.2,0.4,14.5,0.9,21.7,1.3c4.8,0.3,9.7,0.6,14.5,0.9c0.4,0,0.6-0.1,0.7-0.5c2.8-7.5,5.7-14.9,8.5-22.4
		c3-7.9,6-15.9,9.1-23.8c0.1-0.1,0.1-0.3,0.2-0.4c-0.6-0.1-1.1-0.2-1.7-0.2c-0.3,0-0.4-0.2-0.5-0.4c-0.2-0.7-0.5-1.4-0.7-2.1
		C59.6,9.2,59.2,8.1,58.8,6.9z"/>
	<path class="st0" d="M58.8,6.9c0.4,1.2,0.8,2.3,1.2,3.4c0.2,0.7,0.5,1.4,0.7,2.1c0.1,0.3,0.2,0.4,0.5,0.4c0.5,0,1.1,0.1,1.7,0.2
		c-0.1,0.2-0.1,0.3-0.2,0.4c-3,7.9-6,15.9-9.1,23.8c-2.8,7.5-5.7,14.9-8.5,22.4c-0.1,0.4-0.3,0.5-0.7,0.5c-4.8-0.3-9.7-0.6-14.5-0.9
		c-7.2-0.4-14.5-0.9-21.7-1.3c-0.2,0-0.4-0.1-0.6-0.2c-3.1-1.3-5.3-3.5-6.7-6.6c-0.1-0.1-0.1-0.2-0.1-0.4c0.5,0,0.9,0,1.4,0
		C6,51,9.8,51.1,13.6,51.3c7.5,0.3,15,0.7,22.6,1c1.5,0.1,2.9,0.1,4.4,0.2c0.4,0,0.7-0.1,0.8-0.5c3.5-9,7-18.1,10.5-27.1
		c2.3-5.8,4.5-11.7,6.7-17.5C58.6,7.3,58.7,7.1,58.8,6.9z"/>
</g>
<radialGradient id="SVGID_1_" cx="30.1667" cy="27.5" r="26.2103" gradientUnits="userSpaceOnUse">
	<stop  offset="0" style="stop-color:#FFEF26"/>
	<stop  offset="1.783161e-02" style="stop-color:#FFEA21"/>
	<stop  offset="0.102" style="stop-color:#FED70F"/>
	<stop  offset="0.1886" style="stop-color:#FDCC04"/>
	<stop  offset="0.2809" style="stop-color:#FDC800"/>
	<stop  offset="0.6685" style="stop-color:#F18F34"/>
	<stop  offset="0.8876" style="stop-color:#E95F32"/>
	<stop  offset="1" style="stop-color:#E3312D"/>
</radialGradient>
<polygon class="st1" points="40.3,51.3 1.8,49.6 26.7,6.9 58.6,3.7 "/>
<line class="st2" x1="59.1" y1="7.8" x2="42" y2="53.6"/>
<line class="st2" x1="59.7" y1="8.8" x2="42.6" y2="54.6"/>
<line class="st2" x1="60.2" y1="10.6" x2="43.2" y2="56.4"/>
<line class="st2" x1="61" y1="12.4" x2="43.9" y2="58.2"/>
<line class="st2" x1="61.9" y1="12.7" x2="44.6" y2="59.3"/>
<line class="st3" x1="42" y1="53.6" x2="0.8" y2="51.7"/>
<line class="st3" x1="42.6" y1="54.6" x2="1.1" y2="52.6"/>
<line class="st3" x1="43.2" y1="56.4" x2="2.2" y2="54.3"/>
<line class="st3" x1="43.9" y1="58.2" x2="4.4" y2="55.9"/>
<line class="st3" x1="44.6" y1="59.3" x2="6.4" y2="57.2"/>
<g>
	<path d="M28.9,16.3c-0.1,0-0.2-0.1-0.3-0.1c-0.1,0-0.2,0-0.3,0.1c-0.1,0.1-0.2,0.2-0.2,0.3c0,0.1,0,0.3,0.1,0.6
		c0.1,0.3,0.1,0.5,0,0.8c-0.1,0.3-0.3,0.6-0.6,0.8C27.3,18.9,27,19,26.6,19c-0.3,0-0.5,0-0.7-0.1c0-0.1,0-0.2,0-0.4
		c0-0.1,0-0.3,0-0.4c0.2,0.1,0.3,0.1,0.4,0.1c0.3,0,0.5-0.1,0.5-0.3c0-0.2,0-0.3,0-0.4c-0.1-0.2-0.3-0.4-0.4-0.5
		c-0.3-0.3-0.3-0.8-0.2-1.2c0.1-0.5,0.4-0.8,0.8-1.1c0.4-0.2,0.8-0.3,1.3-0.3c0.3,0,0.6,0.1,0.9,0.2L28.9,16.3z"/>
	<path d="M33.1,14.6l-0.7,1.9c-0.1,0-0.2,0-0.3-0.1c-0.1,0-0.3,0-0.5,0c0,0.1-0.2,0.4-0.3,0.8c-0.2,0.4-0.4,1.1-0.7,1.9l-1.4-0.1
		c0.1-0.4,0.3-1,0.5-1.9c0.1-0.3,0.1-0.6,0.2-0.9l-0.4,0l-0.4,0l0.5-1.9L33.1,14.6z"/>
	<path d="M36.3,17c-0.2,0.7-0.6,1.3-1,1.7c-0.5,0.5-1,0.7-1.6,0.7c-0.6,0-1-0.3-1.2-0.8c-0.2-0.5-0.2-1.1,0-1.8
		c0.2-0.7,0.6-1.3,1.1-1.7c0.5-0.4,1-0.6,1.5-0.5c0.5,0,0.9,0.2,1.2,0.7C36.6,15.7,36.6,16.3,36.3,17z M34.8,17.5
		c0.2-0.5,0.1-0.8-0.3-0.8c-0.3,0-0.6,0.2-0.8,0.8c-0.1,0.2-0.1,0.4-0.1,0.6c0,0.2,0.1,0.3,0.3,0.3c0.1,0,0.3-0.1,0.5-0.3
		C34.6,17.9,34.8,17.7,34.8,17.5z"/>
	<path d="M40.5,16.7c-0.1,0.4-0.3,0.7-0.6,1c-0.2,0.2-0.5,0.4-0.8,0.5c0,0.1,0.1,0.3,0.2,0.6c0.1,0.1,0.2,0.3,0.3,0.5
		c-0.1,0-0.3,0.1-0.7,0.2c-0.2,0.1-0.5,0.2-0.7,0.3c0-0.1-0.1-0.3-0.2-0.6c0-0.2-0.1-0.4-0.1-0.8l0,0l-0.3,1L36,19.4
		c0.1-0.4,0.3-1.1,0.6-2.1c0.2-0.6,0.4-1.4,0.6-2.4c0.5,0,1,0,1.4,0C40.2,14.9,40.8,15.5,40.5,16.7z M39,17.3c0.1-0.2,0-0.3-0.1-0.4
		c-0.1-0.1-0.2-0.1-0.4-0.1l-0.3,1c0.2,0,0.3,0,0.4-0.1C38.8,17.6,38.9,17.5,39,17.3z"/>
	<path d="M45,15.2l-0.8,1c-0.2,0.3-0.5,0.7-0.9,1.2c-0.1,0.3-0.3,0.7-0.4,1.2c-0.1,0.3-0.2,0.7-0.4,1.2L41,19.7
		c0.1-0.2,0.2-0.6,0.3-1.2c0-0.2,0.1-0.6,0.2-1.2c0-0.2-0.1-0.6-0.2-1.1c-0.1-0.3-0.2-0.7-0.3-1.2l2.1,0.1c0,0.1,0,0.3,0,0.6l0,0.8
		c0.1-0.2,0.3-0.4,0.5-0.8c0.1-0.1,0.2-0.3,0.3-0.6L45,15.2z"/>
	<path d="M33.3,24.2c-0.2,0.7-0.6,1.3-1,1.7c-0.5,0.5-1,0.7-1.6,0.7c-0.6,0-1-0.3-1.2-0.8c-0.2-0.5-0.2-1.1,0-1.8
		c0.2-0.7,0.6-1.3,1.1-1.7c0.5-0.4,1-0.6,1.5-0.5c0.5,0,0.9,0.2,1.2,0.7C33.5,22.9,33.5,23.5,33.3,24.2z M31.8,24.7
		c0.2-0.5,0.1-0.8-0.3-0.8c-0.3,0-0.6,0.3-0.8,0.8c-0.1,0.2-0.1,0.4-0.1,0.6c0,0.2,0.1,0.3,0.3,0.3c0.1,0,0.3-0.1,0.5-0.3
		C31.6,25.1,31.7,24.9,31.8,24.7z"/>
	<path d="M37.1,22.2l-0.7,1.9c-0.1,0-0.2,0-0.4-0.1c-0.1,0-0.3,0-0.5,0l-0.3,1c0.2,0,0.5,0,0.9,0c0,0.1-0.1,0.2-0.2,0.4
		c-0.1,0.1-0.1,0.3-0.2,0.4c0,0-0.2,0-0.3-0.1c-0.1,0-0.3,0-0.4,0l-0.3,1L33,26.6l0.6-2.3c0.1-0.5,0.3-1.3,0.6-2.2L37.1,22.2z"/>
	<path d="M24.6,29c-0.2,0.4-0.4,1.2-0.8,2.3c-0.2,0.7-0.5,1.4-0.8,2.3l-1,0l0.4-1.4L21,33.5L20.4,32l-0.4,1.4l-1,0
		c0.1-0.5,0.3-1.2,0.6-2.3c0.2-0.6,0.3-1.4,0.5-2.3l1.6,0.1c0,0.1,0,0.4,0.1,0.7c0,0.2,0.1,0.5,0.2,0.8c0.1-0.1,0.4-0.4,0.7-0.8
		c0.1-0.2,0.3-0.4,0.5-0.7L24.6,29z"/>
	<path d="M26.8,29.1l-0.8,2.4c-0.2,0.5-0.4,1.2-0.7,2.1l-1.6-0.1l1.2-4.6L26.8,29.1z"/>
	<path d="M30,31.9c-0.1,0.2-0.2,0.5-0.4,0.9c-0.1,0.3-0.2,0.6-0.4,1c-0.3,0.1-0.6,0.1-1.1,0.1c-0.7,0-1.2-0.2-1.6-0.6
		c-0.4-0.4-0.5-1-0.2-1.8c0.2-0.8,0.6-1.4,1.2-1.8c0.6-0.4,1.2-0.6,1.9-0.5c0.3,0,0.5,0,0.8,0.1l-0.4,1.9c-0.1-0.1-0.3-0.1-0.5-0.1
		c-0.3,0-0.6,0.1-0.9,0.2c-0.3,0.2-0.5,0.5-0.6,0.8c-0.1,0.3-0.1,0.6,0.1,0.7c0.1,0.2,0.3,0.2,0.6,0.2l0.1-0.6
		c0-0.1,0.1-0.3,0.1-0.6L30,31.9z"/>
	<path d="M35.1,29.5c-0.2,0.5-0.5,1.3-0.8,2.4c-0.2,0.5-0.4,1.2-0.7,2.2L32.1,34l0.3-1c0,0-0.1,0-0.2,0.1c-0.1,0-0.2,0.1-0.3,0.1
		l0-0.4c0-0.1,0-0.2,0-0.3l-0.5,1.5l-1.6-0.1l0.6-2.2c0.2-0.6,0.4-1.4,0.6-2.4l2,0.1l-1,2.8c0.1,0,0.3,0,0.4,0c0.1,0,0.2,0,0.3,0
		l0.7-2.8L35.1,29.5z"/>
	<path d="M38.8,29.7l-0.6,1.9c-0.1,0-0.2,0-0.3-0.1c-0.1,0-0.3,0-0.5,0c0,0.1-0.2,0.4-0.3,0.8c-0.2,0.4-0.4,1.1-0.7,1.9L35,34.1
		c0.1-0.4,0.3-1,0.5-1.9c0.1-0.3,0.1-0.6,0.2-0.9l-0.4,0l-0.4,0l0.5-1.9L38.8,29.7z"/>
	<path d="M42.8,29.9l-0.8,1c-0.2,0.3-0.5,0.7-0.9,1.2c-0.1,0.3-0.3,0.7-0.4,1.2c-0.1,0.3-0.2,0.7-0.4,1.2l-1.4-0.1
		c0.1-0.2,0.2-0.6,0.3-1.2c0-0.2,0.1-0.6,0.2-1.2c0-0.2-0.1-0.6-0.2-1.1c-0.1-0.3-0.2-0.7-0.3-1.2l2.1,0.1c0,0.1,0,0.3,0,0.6l0,0.8
		c0.1-0.2,0.3-0.4,0.5-0.8c0.1-0.1,0.2-0.3,0.3-0.6L42.8,29.9z"/>
	<path d="M25.4,38.2c-0.2,0.6-0.5,1-0.9,1.3C24,39.9,23.5,40,23,40l-0.3,0.9l-1.5-0.1l0.6-2.2c0.1-0.6,0.3-1.4,0.6-2.3
		c0.3,0,0.7-0.1,1.3,0c0.7,0,1.2,0.2,1.5,0.5C25.5,37.1,25.6,37.6,25.4,38.2z M24.1,38.7c0.1-0.3,0-0.5-0.4-0.5c0,0-0.1,0-0.1,0
		l-0.3,1C23.7,39.2,24,39,24.1,38.7z"/>
	<path d="M29.1,36.6l-0.7,1.9c-0.1,0-0.2,0-0.4-0.1c-0.2,0-0.3,0-0.5-0.1l-0.2,0.6c0.2,0,0.5,0,1,0c0,0.1-0.1,0.2-0.2,0.4
		c-0.1,0.1-0.1,0.3-0.2,0.4c0,0-0.2,0-0.4-0.1c-0.1,0-0.2,0-0.4,0l-0.2,0.7c0.1,0,0.4,0,0.8,0c0.1,0,0.2,0,0.4-0.1
		c0,0.1-0.1,0.2-0.2,0.4c-0.1,0.1-0.1,0.3-0.2,0.5L24.9,41l0.6-2.3c0.1-0.5,0.3-1.3,0.6-2.2L29.1,36.6z"/>
	<path d="M32.4,38.6c-0.2,0.6-0.5,1-0.9,1.3c-0.4,0.3-0.9,0.5-1.5,0.4l-0.3,0.9l-1.5-0.1l0.6-2.2c0.1-0.6,0.3-1.4,0.6-2.3
		c0.3,0,0.7-0.1,1.3,0c0.7,0,1.2,0.2,1.5,0.5C32.5,37.4,32.6,37.9,32.4,38.6z M31.1,39c0.1-0.3,0-0.5-0.4-0.5c0,0-0.1,0-0.1,0
		l-0.3,1C30.7,39.6,31,39.4,31.1,39z"/>
	<path d="M36.1,36.9l-0.7,1.9c-0.1,0-0.2,0-0.4-0.1c-0.2,0-0.3,0-0.5-0.1l-0.2,0.6c0.2,0,0.5,0,1,0c0,0.1-0.1,0.2-0.2,0.4
		c-0.1,0.1-0.1,0.3-0.2,0.4c0,0-0.2,0-0.4-0.1c-0.1,0-0.2,0-0.4,0l-0.2,0.7c0.1,0,0.4,0,0.8,0c0.1,0,0.2,0,0.4-0.1
		c0,0.1-0.1,0.2-0.2,0.4c-0.1,0.1-0.1,0.3-0.2,0.5l-2.5-0.1l0.6-2.3c0.1-0.5,0.3-1.3,0.6-2.2L36.1,36.9z"/>
</g>
</svg>
