<?xml version="1.0" encoding="utf-8"?>
<!-- Generator: Adobe Illustrator 25.0.0, SVG Export Plug-In . SVG Version: 6.00 Build 0)  -->
<svg version="1.1" id="Ebene_1" xmlns="http://www.w3.org/2000/svg" xmlns:xlink="http://www.w3.org/1999/xlink" x="0px" y="0px"
	 viewBox="0 0 32 32" style="enable-background:new 0 0 32 32;" xml:space="preserve">
<polygon points="4.8,4.8 0.7,8.9 0.7,0.7 8.9,0.7 "/>
<rect x="5.8" y="3.3" transform="matrix(0.7071 -0.7071 0.7071 0.7071 -2.8579 7.3151)" width="3.2" height="7.6"/>
<polygon points="4.8,27.2 8.9,31.3 0.7,31.3 0.7,23.1 "/>
<rect x="5.5" y="20.8" transform="matrix(-0.7071 -0.7071 0.7071 -0.7071 -5.2601 47.0206)" width="3.2" height="7.6"/>
<polygon points="27.2,27.2 31.3,23.1 31.3,31.3 23.1,31.3 "/>
<rect x="23" y="21.1" transform="matrix(-0.7071 0.7071 -0.7071 -0.7071 59.5976 25.0992)" width="3.2" height="7.6"/>
<polygon points="27.2,4.8 23.1,0.7 31.3,0.7 31.3,8.9 "/>
<rect x="23.3" y="3.6" transform="matrix(0.7071 0.7071 -0.7071 0.7071 12.5345 -15.4603)" width="3.2" height="7.6"/>
</svg>
