<?xml version="1.0" encoding="utf-8"?>
<!-- Generator: Adobe Illustrator 25.0.0, SVG Export Plug-In . SVG Version: 6.00 Build 0)  -->
<svg version="1.1" id="Ebene_1" xmlns="http://www.w3.org/2000/svg" xmlns:xlink="http://www.w3.org/1999/xlink" x="0px" y="0px"
	 viewBox="0 0 32 32" style="enable-background:new 0 0 32 32;" xml:space="preserve">
<polygon points="7.1,6.8 11.2,2.7 11.2,10.9 3,10.9 "/>
<rect x="3" y="0.7" transform="matrix(-0.7071 0.7071 -0.7071 -0.7071 10.9997 4.555)" width="3.2" height="7.6"/>
<polygon points="6.8,24.9 2.7,20.8 10.9,20.8 10.9,29 "/>
<rect x="3" y="23.6" transform="matrix(0.7071 0.7071 -0.7071 0.7071 20.7407 4.8164)" width="3.2" height="7.6"/>
<polygon points="24.9,25.2 20.8,29.3 20.8,21.1 29,21.1 "/>
<rect x="25.9" y="23.6" transform="matrix(0.7071 -0.7071 0.7071 0.7071 -11.3676 27.445)" width="3.2" height="7.6"/>
<polygon points="25.2,7.1 29.3,11.2 21.1,11.2 21.1,3 "/>
<rect x="25.9" y="0.7" transform="matrix(-0.7071 -0.7071 0.7071 -0.7071 43.6921 27.2091)" width="3.2" height="7.6"/>
</svg>
